<svg width="16" height="16" viewBox="0 0 16 16" fill="none" xmlns="http://www.w3.org/2000/svg">
    <path d="M7.20012 14.4002C7.20012 14.1881 7.28439 13.9846 7.4344 13.8346C7.5844 13.6846 7.78786 13.6003 8 13.6003C8.21214 13.6003 8.4156 13.6846 8.5656 13.8346C8.71561 13.9846 8.79988 14.1881 8.79988 14.4002V15.2001C8.79988 15.4123 8.71561 15.6157 8.5656 15.7657C8.4156 15.9157 8.21214 16 8 16C7.78786 16 7.5844 15.9157 7.4344 15.7657C7.28439 15.6157 7.20012 15.4123 7.20012 15.2001V14.4002ZM7.20012 0.799885C7.20012 0.587742 7.28439 0.384288 7.4344 0.234281C7.5844 0.0842735 7.78786 0 8 0C8.21214 0 8.4156 0.0842735 8.5656 0.234281C8.71561 0.384288 8.79988 0.587742 8.79988 0.799885V1.59977C8.79988 1.81191 8.71561 2.01537 8.5656 2.16537C8.4156 2.31538 8.21214 2.39965 8 2.39965C7.78786 2.39965 7.5844 2.31538 7.4344 2.16537C7.28439 2.01537 7.20012 1.81191 7.20012 1.59977V0.799885ZM0 8C0 7.55839 0.357894 7.20012 0.799885 7.20012H1.59977C1.81191 7.20012 2.01537 7.28439 2.16537 7.4344C2.31538 7.5844 2.39965 7.78786 2.39965 8C2.39965 8.21214 2.31538 8.4156 2.16537 8.5656C2.01537 8.71561 1.81191 8.79988 1.59977 8.79988H0.799885C0.587742 8.79988 0.384288 8.71561 0.234281 8.5656C0.0842735 8.4156 0 8.21214 0 8ZM13.6 8C13.6 7.55839 13.9582 7.20012 14.4002 7.20012H15.2001C15.4123 7.20012 15.6157 7.28439 15.7657 7.4344C15.9157 7.5844 16 7.78786 16 8C16 8.21214 15.9157 8.4156 15.7657 8.5656C15.6157 8.71561 15.4123 8.79988 15.2001 8.79988H14.4002C14.2952 8.79994 14.1911 8.77928 14.094 8.73911C13.9969 8.69893 13.9087 8.64002 13.8344 8.56574C13.7601 8.49146 13.7011 8.40326 13.6609 8.30619C13.6207 8.20912 13.6 8.10507 13.6 8ZM3.47526 13.6568C3.32524 13.8068 3.12177 13.8911 2.90961 13.8911C2.69746 13.8911 2.49399 13.8068 2.34397 13.6568C2.19396 13.5068 2.10968 13.3033 2.10968 13.0912C2.10968 12.879 2.19396 12.6755 2.34397 12.5255L2.90961 11.9603C2.98348 11.8842 3.07172 11.8236 3.16921 11.782C3.2667 11.7403 3.3715 11.7185 3.47751 11.7177C3.58352 11.7169 3.68863 11.7372 3.78673 11.7774C3.88482 11.8176 3.97395 11.8769 4.04893 11.9518C4.1239 12.0268 4.18323 12.1159 4.22346 12.214C4.2637 12.3121 4.28403 12.4172 4.28328 12.5232C4.28254 12.6292 4.26072 12.734 4.21911 12.8315C4.1775 12.929 4.11692 13.0173 4.0409 13.0912L3.47526 13.6568ZM11.9591 4.0409C11.8848 3.96662 11.8259 3.87844 11.7857 3.78138C11.7455 3.68433 11.7248 3.58031 11.7248 3.47526C11.7248 3.3702 11.7455 3.26618 11.7857 3.16913C11.8259 3.07208 11.8848 2.98389 11.9591 2.90961L12.5255 2.34321C12.6755 2.19319 12.879 2.10891 13.0912 2.10891C13.3033 2.10891 13.5068 2.19319 13.6568 2.34321C13.8068 2.49322 13.8911 2.69669 13.8911 2.90885C13.8911 3.121 13.8068 3.32447 13.6568 3.47449L13.0904 4.0409C13.0161 4.11518 12.9279 4.17411 12.8309 4.21432C12.7338 4.25452 12.6298 4.27521 12.5247 4.27521C12.4197 4.27521 12.3157 4.25452 12.2186 4.21432C12.1216 4.17411 12.0334 4.11518 11.9591 4.0409ZM4.0409 4.04128C3.96662 4.11557 3.87844 4.1745 3.78138 4.2147C3.68433 4.25491 3.58031 4.2756 3.47526 4.2756C3.3702 4.2756 3.26618 4.25491 3.16913 4.2147C3.07208 4.1745 2.98389 4.11557 2.90961 4.04128L2.34397 3.47564C2.26819 3.40164 2.20785 3.31334 2.16646 3.21584C2.12506 3.11835 2.10343 3.01361 2.10282 2.9077C2.10221 2.80178 2.12262 2.6968 2.16289 2.59883C2.20316 2.50087 2.26247 2.41187 2.33739 2.337C2.41231 2.26213 2.50135 2.20288 2.59934 2.16268C2.69733 2.12248 2.80233 2.10213 2.90824 2.10282C3.01416 2.1035 3.11888 2.1252 3.21635 2.16667C3.31381 2.20813 3.40208 2.26853 3.47602 2.34436L4.04128 2.91038C4.19119 3.06038 4.27541 3.26376 4.27541 3.47583C4.27541 3.6879 4.19119 3.89129 4.04128 4.04128H4.0409ZM13.6568 12.5255C13.8068 12.6755 13.8911 12.879 13.8911 13.0912C13.8911 13.3033 13.8068 13.5068 13.6568 13.6568C13.5068 13.8068 13.3033 13.8911 13.0912 13.8911C12.879 13.8911 12.6755 13.8068 12.5255 13.6568L11.9591 13.0904C11.8091 12.9404 11.7248 12.7369 11.7248 12.5247C11.7248 12.3126 11.8091 12.1091 11.9591 11.9591C12.1091 11.8091 12.3126 11.7248 12.5247 11.7248C12.7369 11.7248 12.9404 11.8091 13.0904 11.9591L13.6568 12.5255Z" fill="#FFD983"/>
    <path d="M8.00009 12.1143C10.2723 12.1143 12.1144 10.2721 12.1144 7.99991C12.1144 5.72768 10.2723 3.88556 8.00009 3.88556C5.72786 3.88556 3.88574 5.72768 3.88574 7.99991C3.88574 10.2721 5.72786 12.1143 8.00009 12.1143Z" fill="#FFD983"/>
</svg>
