<svg width="38" height="42" viewBox="0 0 38 42" fill="none" xmlns="http://www.w3.org/2000/svg">
    <path d="M25.375 33.6667H12.625M36 2H33.875M33.875 2H4.125M33.875 2C33.875 7.29935 31.2989 12.2725 26.9583 15.3527L19 21M4.125 2H2M4.125 2C4.125 7.29935 6.70109 12.2725 11.0417 15.3527L19 21M19 21L26.9583 26.6472C31.2989 29.7275 33.875 34.7007 33.875 40M19 21L11.0417 26.6472C6.70109 29.7275 4.125 34.7007 4.125 40M36 40H33.875M33.875 40H4.125M4.125 40H2" stroke="#FFD983" stroke-width="4" stroke-linecap="round" stroke-linejoin="round"/>
</svg>
