<svg width="16" height="17" viewBox="0 0 16 17" fill="none" xmlns="http://www.w3.org/2000/svg">
    <path d="M8 16.2131C12.4182 16.2131 16 12.6313 16 8.21313C16 3.79497 12.4182 0.213135 8 0.213135C3.58184 0.213135 0 3.79497 0 8.21313C0 12.6313 3.58184 16.2131 8 16.2131Z" fill="#FFD983"/>
    <path d="M4.66701 5.54695C5.07962 5.54695 5.47533 5.38304 5.76709 5.09128C6.05884 4.79953 6.22275 4.40381 6.22275 3.99121C6.22275 3.5786 6.05884 3.18289 5.76709 2.89113C5.47533 2.59937 5.07962 2.43546 4.66701 2.43546C4.25446 2.43546 3.85881 2.59934 3.56709 2.89106C3.27537 3.18278 3.11149 3.57843 3.11149 3.99098C3.11149 4.40353 3.27537 4.79918 3.56709 5.09089C3.85881 5.38261 4.25446 5.54695 4.66701 5.54695ZM8.88919 9.1019C9.06719 9.10655 9.24432 9.07551 9.41013 9.01061C9.57594 8.94571 9.72707 8.84826 9.85462 8.72401C9.98216 8.59976 10.0835 8.45122 10.1527 8.28717C10.222 8.12311 10.2576 7.94685 10.2576 7.76879C10.2576 7.59073 10.222 7.41448 10.1527 7.25042C10.0835 7.08636 9.98216 6.93783 9.85462 6.81358C9.72707 6.68933 9.57594 6.59188 9.41013 6.52697C9.24432 6.46207 9.06719 6.43103 8.88919 6.43569C8.54167 6.44478 8.21143 6.58922 7.96884 6.83823C7.72625 7.08725 7.59049 7.42115 7.59049 7.76879C7.59049 8.11644 7.72625 8.45034 7.96884 8.69936C8.21143 8.94837 8.54167 9.09281 8.88919 9.1019ZM10.8895 14.4352C11.3021 14.4352 11.6977 14.2713 11.9894 13.9796C12.2812 13.6879 12.4451 13.2923 12.4451 12.8797C12.4451 12.4672 12.2812 12.0715 11.9894 11.7798C11.6977 11.4881 11.3021 11.3242 10.8895 11.3242C10.477 11.3242 10.0813 11.4881 9.78962 11.7798C9.4979 12.0715 9.33402 12.4672 9.33402 12.8797C9.33402 13.2923 9.4979 13.6879 9.78962 13.9796C10.0813 14.2713 10.477 14.4352 10.8895 14.4352ZM9.77793 3.3242C10.0136 3.3242 10.2397 3.23056 10.4064 3.06389C10.573 2.89722 10.6667 2.67117 10.6667 2.43546C10.6667 2.19975 10.573 1.9737 10.4064 1.80703C10.2397 1.64036 10.0136 1.54672 9.77793 1.54672C9.54222 1.54672 9.31617 1.64036 9.1495 1.80703C8.98283 1.9737 8.88919 2.19975 8.88919 2.43546C8.88919 2.67117 8.98283 2.89722 9.1495 3.06389C9.31617 3.23056 9.54222 3.3242 9.77793 3.3242ZM1.33402 8.65753C1.39237 8.65753 1.45016 8.64604 1.50407 8.62371C1.55798 8.60137 1.60697 8.56864 1.64823 8.52738C1.6895 8.48612 1.72223 8.43713 1.74456 8.38321C1.76689 8.3293 1.77838 8.27152 1.77838 8.21316C1.77838 8.15481 1.76689 8.09702 1.74456 8.04311C1.72223 7.9892 1.6895 7.94021 1.64823 7.89895C1.60697 7.85768 1.55798 7.82495 1.50407 7.80262C1.45016 7.78029 1.39237 7.76879 1.33402 7.76879C1.21616 7.76879 1.10314 7.81561 1.0198 7.89895C0.936465 7.98228 0.889648 8.09531 0.889648 8.21316C0.889648 8.33102 0.936465 8.44404 1.0198 8.52738C1.10314 8.61071 1.21616 8.65753 1.33402 8.65753ZM13.3338 4.65776C13.3921 4.65776 13.4499 4.64626 13.5038 4.62393C13.5578 4.6016 13.6067 4.56887 13.648 4.52761C13.6893 4.48634 13.722 4.43736 13.7443 4.38344C13.7667 4.32953 13.7782 4.27175 13.7782 4.21339C13.7782 4.15503 13.7667 4.09725 13.7443 4.04334C13.722 3.98942 13.6893 3.94044 13.648 3.89917C13.6067 3.85791 13.5578 3.82518 13.5038 3.80285C13.4499 3.78052 13.3921 3.76902 13.3338 3.76902C13.2159 3.76902 13.1029 3.81584 13.0196 3.89917C12.9362 3.98251 12.8894 4.09554 12.8894 4.21339C12.8894 4.33124 12.9362 4.44427 13.0196 4.52761C13.1029 4.61094 13.2159 4.65776 13.3338 4.65776ZM6.66735 14.4352C6.7852 14.4352 6.89823 14.3884 6.98157 14.3051C7.0649 14.2217 7.11172 14.1087 7.11172 13.9909C7.11172 13.873 7.0649 13.76 6.98157 13.6766C6.89823 13.5933 6.7852 13.5465 6.66735 13.5465C6.5495 13.5465 6.43647 13.5933 6.35313 13.6766C6.2698 13.76 6.22298 13.873 6.22298 13.9909C6.22298 14.1087 6.2698 14.2217 6.35313 14.3051C6.43647 14.3884 6.5495 14.4352 6.66735 14.4352ZM14.2225 9.54627C14.4582 9.54627 14.6843 9.45263 14.851 9.28596C15.0176 9.11929 15.1113 8.89324 15.1113 8.65753C15.1113 8.42182 15.0176 8.19577 14.851 8.0291C14.6843 7.86243 14.4582 7.76879 14.2225 7.76879C13.9868 7.76879 13.7608 7.86243 13.5941 8.0291C13.4274 8.19577 13.3338 8.42182 13.3338 8.65753C13.3338 8.89324 13.4274 9.11929 13.5941 9.28596C13.7608 9.45263 13.9868 9.54627 14.2225 9.54627ZM4.44505 11.3242C4.68076 11.3242 4.90681 11.2306 5.07348 11.0639C5.24015 10.8972 5.33379 10.6712 5.33379 10.4355C5.33379 10.1998 5.24015 9.9737 5.07348 9.80703C4.90681 9.64036 4.68076 9.54672 4.44505 9.54672C4.20934 9.54672 3.98329 9.64036 3.81662 9.80703C3.64995 9.9737 3.55631 10.1998 3.55631 10.4355C3.55631 10.6712 3.64995 10.8972 3.81662 11.0639C3.98329 11.2306 4.20934 11.3242 4.44505 11.3242Z" fill="#FFCC4D"/>
</svg>
