<svg width="17" height="17" viewBox="0 0 17 17" fill="none" xmlns="http://www.w3.org/2000/svg">
    <path d="M14.2647 0.427094C15.0317 8.70495 9.58097 14.6102 0.848633 13.8431C4.57278 17.3485 10.4289 17.2899 14.0702 13.6487C17.712 10.0069 17.7705 4.15124 14.2647 0.427094Z" fill="#FFD983"/>
    <path d="M13.411 6.84943C13.3674 6.90037 13.3318 6.96205 13.3064 7.03097C13.2809 7.09988 13.2661 7.17467 13.2628 7.25107C13.2595 7.32748 13.2676 7.40399 13.2869 7.47625C13.3062 7.54851 13.3361 7.61509 13.3751 7.67221C13.414 7.72932 13.4611 7.77584 13.5138 7.80912C13.5665 7.84239 13.6236 7.86176 13.682 7.86613C13.7404 7.8705 13.7989 7.85978 13.8542 7.83458C13.9094 7.80938 13.9603 7.77019 14.0039 7.71925C14.0921 7.61639 14.1454 7.47191 14.1522 7.31761C14.1589 7.16331 14.1185 7.01182 14.0399 6.89648C13.9613 6.78113 13.8508 6.71137 13.7329 6.70255C13.615 6.69373 13.4992 6.74656 13.411 6.84943ZM7.27782 14.0515C7.16779 14.1938 7.09907 14.3819 7.08347 14.5833C7.06787 14.7847 7.10637 14.987 7.19234 15.1553C7.27832 15.3236 7.40641 15.4476 7.55462 15.5058C7.70283 15.564 7.86191 15.5529 8.00454 15.4744C8.15807 15.3921 8.28261 15.2378 8.35381 15.0417C8.42501 14.8456 8.43776 14.6219 8.38957 14.4142C8.34137 14.2065 8.23569 14.0297 8.09319 13.9185C7.95069 13.8074 7.78161 13.7697 7.61902 13.8129C7.48973 13.8464 7.37097 13.9295 7.27782 14.0515ZM12.6249 12.9759C12.5217 13.111 12.3991 13.2182 12.2642 13.2913C12.1294 13.3645 11.9848 13.4021 11.8388 13.4021C11.6928 13.4022 11.5482 13.3646 11.4133 13.2915C11.2784 13.2184 11.1558 13.1113 11.0525 12.9762C10.9493 12.8412 10.8674 12.6808 10.8115 12.5043C10.7556 12.3279 10.7268 12.1387 10.7268 11.9477C10.7268 11.7566 10.7555 11.5675 10.8113 11.391C10.8672 11.2145 10.9491 11.0541 11.0523 10.919C11.1815 10.7494 11.3407 10.6242 11.5157 10.5545C11.6908 10.4848 11.8763 10.4728 12.0558 10.5194C12.2352 10.5661 12.4031 10.67 12.5445 10.822C12.6859 10.974 12.7964 11.1693 12.8662 11.3906C12.9504 11.6564 12.9724 11.9489 12.9295 12.2312C12.8865 12.5134 12.7805 12.7726 12.6249 12.9759Z" fill="#FFCC4D"/>
</svg>
