<svg xmlns="http://www.w3.org/2000/svg" viewBox="0 0 500 500"><defs><style>.cls-1{fill:#ff9000;}</style></defs><g id="OBJECTS"><circle cx="250" cy="250" r="227.94"/><path class="cls-1" d="M282.57,188.67c7.61-.71,14.67-.08,20.71-2.27,6.69-2.42,10.65-8.41,8.53-16.94,10.87-.1,14.39-7.43,17.26-15.61,2.74-7.82,5.78-15.53,9.06-24.29-2.28-.73-4.69-1.94-7.22-2.24a45.57,45.57,0,0,0-26.81,5.08c-5.1,2.62-10.29,5.06-15.5,7.46-3.52,1.62-8.15-.37-10.14-4.17-1.8-3.44-1.52-4.35,2.5-7.25,2.63,4.42,6.14,3.22,10,1.56,7.09-3.09,14.09-6.68,21.49-8.71,11.9-3.27,22.85.09,32.51,6.76-4.14,11.92-7.44,23.72-12.34,34.81-4.31,9.76-4.9,19.72-6,30-.92,8.38-4.92,16.43-7.61,24.62-.33,1-1.37,1.88-1.49,2.89-1.9,15.86-10.51,28-21,39.29a20.88,20.88,0,0,0-4,7.62c-4,11.88-9.89,22.54-18.72,31.59-7.45,7.63-14.3,15.85-21.83,23.39-7.11,7.12-16.43,7.39-25.63,6.33-8.82-1-15.08-5.31-20.08-13.51-5.56-9.09-13.8-16.54-20.85-24.72-5.75-6.66-10.05-14.06-11.94-22.77a7.48,7.48,0,0,0-3.33-4.53c3,11.08,5.68,22.27,9.14,33.21,2.62,8.29,9.5,13.36,16,18.63,5.28,4.28,10.6,8.67,15,13.78,1.63,1.88,2.08,7.23.67,8.72-2.1,2.22-6.31,2.5-9.68,3.38-.46.12-1.25-1-1.41-1.2,2-2.44,5.76-5.61,5.26-6.59a18.15,18.15,0,0,0-7.44-7.8c-6.41-3.12-13.49-4.85-20-7.75-13.44-6-29.21-24.84-24.84-45.87,1.1-5.33.42-11,.77-16.52.21-3.23.84-6.45,1.44-10.82-2-6.71-4.34-15-7.07-23.18-2.37-7.11-5.41-14-7.75-21.13a23.08,23.08,0,0,1-1.14-9.31c1.17-11-3.43-20.58-6.86-30.45-3.57-10.27-7.32-20.47-11.21-31.33,12.74-8.52,26.24-10.08,40.58-3.85,3.72,1.62,7.35,3.47,11,5.23,4.46,2.14,8.89,4.15,12.85-1.4,2.57,3.48,2.66,6.43.12,9.29s-5.35,4.66-9.24,2.78c-6-2.89-11.86-6-17.92-8.72a42.4,42.4,0,0,0-26.47-3.23,24.3,24.3,0,0,0-4,1.54c3.31,9.21,6.21,18,9.62,26.51,2.81,7,6.26,13.76,16.47,13.08-1.27,7.38-.74,13.92,7,17.3,6.55,2.86,13.08,3.44,19.92.53,3.54,5.1-.74,7.33-3.7,8-6.71,1.62-13.69,2.1-20.56,3a19.35,19.35,0,0,1-3.63-.26c-.11,6.35,2.66,11.13,6,15.77a7.64,7.64,0,0,1,1.64,4.73c-1.29,11.22,3.2,20.17,10.49,28.11,4.46,4.85,9,9.65,13.44,14.45,5.63-6.62,5.15-13.4-2.32-22.17-5.8-6.81-11.34-13.69-12.41-23a6.21,6.21,0,0,1,1.52-4.16c3.2,9.91,9.35,16.84,17.56,22.39,5.19,3.52,10.26,7.56,9.82,15a9.48,9.48,0,0,1-.52,3.16c-4,9-5,18.47-5,28.22,0,7,2,13.35,7.66,16.91,7.1,4.44,15.06,2.64,22.33-.7,1.45-.66,2.83-3.21,2.79-4.87s-1.57-3.73-3-4.65c-2.11-1.31-4.76-1.79-7.21-2.52-4-1.2-6.91-3.19-6.41-8.77l6.07,2.28c-3.68-5.21-11.54-8.08-7.09-15.67.59-1,2.86-1,5.68-1.94l-2.63,5.65c8.71,4.75,23.54,6.31,36.09,1.36l-.82-7c8.84,6.07,8.93,6.59,3.44,13.95-.49.67-1.22,1.62-1.07,2.25,1.53,6.55-2.9,8-7.65,9.16a58.14,58.14,0,0,0-5.9,1.57c-3.61,1.35-4.45,6.35-1.61,9,4.3,4,21.2,6,26.34,3,7.68-4.48,15.59-16.31,10.35-28.71-2.37-5.61-5.05-11.23-6.35-17.12-2.11-9.58-.72-12.44,6-16.33a133.52,133.52,0,0,0,18.06-12.8c5.28-4.34,9.42-9.64,6.33-17.55,5.33-1.11,6.27,2.62,6.95,5.89,1.39,6.67-1.08,12.55-5.27,17.47a80.53,80.53,0,0,1-10.93,10.18c-7.73,6.23-8.36,9.16-2.86,18.67,6.35-7.85,13.35-15,18.48-23.4,2.87-4.67,2.51-11.29,3.87-17a48.2,48.2,0,0,1,2.94-8c1.88-4.29,3.94-8.49,6.46-13.86-11.41,1-21.23,1.5-29.54-5C283.49,191.79,283.12,189.77,282.57,188.67ZM252,310c-13.94-6.63-27.84-11.45-42.5-1.82,5.46,12.88,10.15,16.5,21.08,16.27C242.44,324.2,248.08,320.47,252,310Z"/><path class="cls-1" d="M313,300.88c5.5,6.24,10.32,12,10.64,20.72.41,11.3-4,20.71-10.6,29-4.52,5.69-10.54,10.33-16.37,14.81-9.82,7.54-10.58,10-6.53,21.33,2,5.54,3.61,11.45-1.89,16.51-.9.83-.81,3-.75,4.58a18.23,18.23,0,0,1-4.89,13.68c-1.54,1.7-2.13,4.43-2.7,6.79-.89,3.73-1,7.81-6.5,9.77L272,431c-9.49-.62-17.54,5.65-27.73,8.55-.53,1.08-1.6,3.27-3.14,6.39-1.89-2.59-3.32-4.56-5.1-7l-21.64-1.53c1.1,4.12,1.82,6.85,2.69,10.11-7.15-3-11.88-7.59-14.63-14.7-2-5.21-5.46-9.86-7.73-15-3-6.86-.71-13.59,2-19.88,2.28-5.22,5.69-9.94,8.32-15a19.46,19.46,0,0,0,2.36-7.24c1.19-16,10.38-25.81,24.18-32.51,19.47-9.45,37-21.5,50.6-38.77a50.39,50.39,0,0,0,10.64-28.57,6.9,6.9,0,0,1,2.57-4.73c17.54-11.46,26.14-28.1,28.49-48.46.39-3.39.57-6.8.84-10.14,5.44,5.23,7.32,13.62,5.71,24.27-2.31,15.33-10.86,27.14-21.25,37.83-2.89,3-4.26,5.5-4.16,10,.34,17.09-7.29,30.89-19,42.87-9.46,9.67-21.74,13.56-34,17.57-4.73,1.55-8,4.21-9.79,8.88-1.6,4.19.19,8.11,4.45,7.76A48.22,48.22,0,0,0,262.13,358c4.71-2.08,7-6.45,3.6-13.39,3.51.68,6.51.36,7.87,1.7a11.17,11.17,0,0,1,2.74,12.26c-3.29,9.34-14.72,17.82-24.81,17.8-6.06,0-12.12-.82-18.68-1.32-2.59,10.2-11.58,14.69-19.85,19.83-10.5,6.52-13.77,12.66-12.16,21.47,3.36-.42,6.82-1.8,9.68-1,4.47,1.25,4.69,5.61,4.25,9.67-.14,1.29-.7,2.61-.53,3.83a25,25,0,0,0,1.51,4.57c1.62-1.13,4.16-1.94,4.69-3.44,3.08-8.84.54-14.78-9.83-21.78L232,405.84c-8.59,8.77-6.95,17.79-4.5,26.69.31,1.11,3.36,1.45,5.82,2.42-.46-4.68-1.22-8.46-1.05-12.19.11-2.37,1-5.38,2.65-6.81,1.91-1.65,5.75-3.26,7.45-2.38,2.13,1.1,3.89,4.7,4.08,7.34.27,3.93-1,8-1.61,12.27,5.83.4,8.16-3.07,9.21-7.61,2.16-9.35-1.12-14.8-11.38-19.54,1.45-2.93,16-5.44,20.25-3.91-1.57,3.33-4.09,6.58-4.47,10.08-.42,3.83,0,8.75,2.15,11.57,1.91,2.48,6.73,2.73,10.26,4l1.29-1.8c-2.19-4.51-4.37-9-6.73-13.9l4.79-6,10.8,6.73c1.31-4.72,0-9.57-3.29-14-1.78-2.42-2.41-4.47,1-6.73l6.12,7c4-4.14,2.24-7.8.24-11.59-2.45-4.65-5.68-9.17-6.87-14.15-1.73-7.29,2.57-13.81,10.17-17.73,9.5-4.88,17.76-11,23.62-20.29,6.34-10.09,8.53-19.92,1.42-30.44a8.69,8.69,0,0,1-1-2.5C312.41,302.09,312.71,301.71,313,300.88Z"/><path class="cls-1" d="M328.1,322c-2.36-8.73-4-16.78-6.83-24.36-1.53-4.08-.76-6.48,2-9C334,278.81,342.19,267,349,254.24c4.13-7.71,4.15-16.06,3.6-24.39a192.34,192.34,0,0,0-11-51.37c-3-8.58-2-14.6,4.53-19.67-3.29,13.8,3.94,23.79,10.25,34.23,6.77,11.21,14,22.31,19.19,34.27,8.53,19.72,1,42.43-19,52.23-7.8,3.81-14.18,9.71-16.55,19a104.25,104.25,0,0,1-6.86,18C332.06,319,329.42,320.67,328.1,322Z"/><path class="cls-1" d="M314.9,116.74c-7.62,2.47-15.39,4.59-22.84,7.49-9.83,3.82-10.17,3.83-17.78-3.41a27.18,27.18,0,0,0-8.42-4.93c-8.95-3.68-19.77-12.58-16.26-24.79a42.67,42.67,0,0,1,8.06-15.29c5.38-6.37,12.27-5.76,20.72.19a101.79,101.79,0,0,1,24.31,23.86c3.58,5,9.54,8.2,14.39,12.25,1.6,1.34,3.07,2.82,4.6,4.24l-6,2.54Zm-16.33-10.91c-5-9.85-18-18.92-25.35-23.44-2.28-1.41-6.88-1.41-9.09,0-3.35,2.17-3.08,6.58-1.14,10A35.05,35.05,0,0,0,280.27,108C286.89,110.76,292.54,108.84,298.57,105.83Z"/><path class="cls-1" d="M272.12,60.37c-1.43-3.16-2.26-5-3.55-7.87,5.53,1.45,9.34,2.92,9.42,8.3.06,4.27-3.65,7.31-8.69,8.46-9.11,2.07-18.7,3.34-27,7.22-14.8,6.88-23.64,19.94-30.94,34.24-3.21,6.29-7.74,12-12.34,17.42-1.44,1.69-5,1.53-7.65,2.22-.29-2.49-1.07-5.05-.74-7.46.53-3.8,2.1-7.46,2.72-11.26,2.13-13,10.12-22,20.32-29.19a124.17,124.17,0,0,1,46.2-20.53C263.66,61.1,267.62,60.92,272.12,60.37Z"/><path class="cls-1" d="M252.55,77c-6.92,8.11-13.64,15.26-12.91,25.62.42,5.94,2.12,12.13,8.78,15.34,5.45,2.63,10.47,6.14,15.69,9.27l0,1.74c-1.52.24-3.08.83-4.56.67-8.39-.91-16.75-2.62-25.15-2.8-4.76-.1-9.59,2.2-14.37,3.46a36.73,36.73,0,0,1-4.74,1.44c-5.3.66-6.84-1.05-5.62-6.3,2.42-10.47,7.18-20,14.8-27.34s16.27-13.64,24.57-20.29C249.91,77.15,251.38,77.27,252.55,77Z"/><path class="cls-1" d="M188.32,190.27l11-2.91c.71-8.77,1.21-17.46,2.23-26.1.29-2.4,1.82-4.87,3.38-6.82,1.07-1.33,3.19-1.81,4.83-2.67l1,1.5c-.63,1.46-1.16,3-1.9,4.38-4.39,8.41-3,16.63.09,25.13a230.76,230.76,0,0,1,7,23.66c.34,1.34-1.6,3.25-2.49,4.9-1.44-1.13-3.6-2-4.21-3.43-3.54-8.49-9.49-13.82-18.6-15.51C190.23,192.32,189.87,191.7,188.32,190.27Z"/><path class="cls-1" d="M272.25,186.19l9.73,1.68c-2.23,1.89-3.23,3.34-4.58,3.79-9.85,3.34-16.95,9.47-21.08,21.08-1.58-2-3.47-3.24-3.52-4.58a26.83,26.83,0,0,1,5.08-17c7.76-11.22,12.74-23.43,5.68-37.23-.51-1-.07-2.49-.07-3.75l1.77-.37c2.33,5.74,5.58,11.3,6.74,17.26S272.25,179.5,272.25,186.19Z"/><path class="cls-1" d="M157.35,152.66c-5.76-1.73-10.31-2.67-14.48-4.46-3.76-1.62-6.59-4.83-5-9.23.84-2.33,3.14-5.14,5.3-5.7s5,1.41,7.52,2.27l-.31,2-5.34.68c0,4.21,2.51,5.37,6.23,5.92a73,73,0,0,1,10.85,2.81c5.46,1.69,6.88,6.12,6,11-1,5.35-4.57,8.74-10.14,9.6-5,.77-9.18-.49-11.81-5.11a8,8,0,0,1-1.21-3.64,23.32,23.32,0,0,1,.85-4.67c1.36.56,2.7,1.17,4.07,1.69,2,.77,4.08,1.49,6.13,2.23Z"/><path class="cls-1" d="M323.88,138.32,319,131.69c4.12-1.54,7.5-.68,9.82,2.19,2.52,3.14,1,9.06-2.64,11.18-3,1.73-6.42,2.73-9.59,4.18-1.85.85-3.57,2-5.35,3,.15.66.3,1.31.46,2H324c-2.66,5.88-6.37,8.35-11.43,7.86-4.7-.45-9.64-1.17-12-6.22-3.33-7,.73-13,9.28-14.27C314.11,140.86,318.38,139.59,323.88,138.32Z"/><path class="cls-1" d="M177,205.26c18.23-1,28.68-3.31,32.9,21.83-2.43-.82-4.46-1.5-6.49-2.2s-4.16-2.13-6.2-2C185.13,223.32,181.12,214.81,177,205.26Zm9.58,3.31-1.15.94c1.9,6.43,7.91,9.64,19.84,9.61l-9.55-9.68-1.11,1c.85,1,1.69,2,2.83,3.34l-3.9,2.54Z"/><path class="cls-1" d="M254.92,228.28c2-5.7,3.2-10.74,5.44-15.29,3.08-6.26,9.63-5.9,15.39-6.67a31.24,31.24,0,0,1,4.92.13c8.14.16,8.44.46,4.35,7.94-3.44,6.3-8.35,10.46-16.16,10.77C264.62,225.33,260.45,227,254.92,228.28Zm17.81-9.8-4.91-2.79,2.77-3.52c-3.84,2.18-9.16,3.07-8.46,10.33l10.47-4.16,8.81-5.75L280,210.73C274.48,210,274.9,215.62,272.73,218.48Z"/></g></svg>