<svg xmlns="http://www.w3.org/2000/svg" viewBox="0 0 1054.9 279.66"><defs><style>.cls-1,.cls-2{fill:#ff9000;}.cls-2{stroke:#000;stroke-miterlimit:10;stroke-width:11px;}</style></defs><g id="OBJECTS"><circle cx="161.83" cy="139.83" r="131.83"/><path class="cls-1" d="M180.66,103.44c4.51-.42,8.7,0,12.28-1.34,4-1.44,6.32-5,5.06-10,6.45-.07,8.54-4.41,10.25-9.27,1.62-4.64,3.42-9.21,5.37-14.41A22.92,22.92,0,0,0,209.34,67a27.11,27.11,0,0,0-15.91,3c-3,1.56-6.11,3-9.2,4.43-2.09,1-4.83-.22-6-2.47-1.07-2.05-.91-2.59,1.48-4.31,1.56,2.63,3.64,1.92,5.9.93,4.21-1.83,8.36-4,12.76-5.17,7.06-1.94,13.55.06,19.29,4-2.46,7.07-4.42,14.07-7.33,20.66-2.55,5.79-2.9,11.7-3.57,17.8-.54,5-2.92,9.75-4.51,14.6-.2.61-.82,1.12-.89,1.72-1.13,9.41-6.24,16.63-12.48,23.31a12.49,12.49,0,0,0-2.36,4.53,48.32,48.32,0,0,1-11.11,18.74c-4.41,4.53-8.48,9.4-13,13.88-4.22,4.22-9.75,4.38-15.21,3.75-5.23-.6-8.94-3.15-11.91-8-3.3-5.4-8.19-9.82-12.38-14.67a30.48,30.48,0,0,1-7.08-13.51,4.45,4.45,0,0,0-2-2.69c1.78,6.58,3.37,13.22,5.42,19.71,1.55,4.92,5.64,7.92,9.5,11.05a69.13,69.13,0,0,1,8.9,8.18c1,1.11,1.24,4.29.4,5.17-1.25,1.32-3.75,1.48-5.75,2-.27.07-.74-.63-.83-.71,1.2-1.45,3.42-3.33,3.12-3.91a10.7,10.7,0,0,0-4.42-4.63c-3.8-1.86-8-2.88-11.88-4.6-8-3.55-17.33-14.74-14.74-27.22.66-3.16.25-6.53.46-9.8.12-1.92.49-3.83.85-6.42-1.2-4-2.58-8.91-4.19-13.75-1.41-4.23-3.22-8.32-4.6-12.54a13.71,13.71,0,0,1-.68-5.53c.7-6.52-2-12.21-4.07-18.07-2.12-6.09-4.34-12.14-6.65-18.59,7.56-5.05,15.57-6,24.08-2.28,2.21,1,4.36,2.06,6.53,3.11,2.64,1.27,5.28,2.46,7.63-.83,1.52,2.06,1.57,3.81.07,5.51s-3.18,2.76-5.49,1.65c-3.55-1.72-7-3.57-10.63-5.18A25.21,25.21,0,0,0,91.22,68a15,15,0,0,0-2.39.92c2,5.46,3.68,10.66,5.71,15.73,1.66,4.16,3.71,8.16,9.77,7.76-.75,4.38-.44,8.26,4.16,10.26a14.23,14.23,0,0,0,11.81.32c2.11,3-.43,4.35-2.19,4.77a110.27,110.27,0,0,1-12.2,1.76,11.8,11.8,0,0,1-2.15-.15c-.07,3.77,1.58,6.6,3.58,9.36a4.47,4.47,0,0,1,1,2.8c-.77,6.66,1.89,12,6.22,16.68,2.64,2.88,5.32,5.73,8,8.57,3.35-3.93,3.06-8-1.37-13.15-3.44-4-6.73-8.12-7.36-13.63a3.63,3.63,0,0,1,.9-2.47c1.9,5.88,5.54,10,10.41,13.29,3.09,2.09,6.09,4.48,5.83,8.88a5.52,5.52,0,0,1-.31,1.87c-2.38,5.34-2.94,11-3,16.75,0,4.16,1.17,7.92,4.54,10,4.22,2.64,8.94,1.57,13.25-.41a3.72,3.72,0,0,0,1.66-2.89,4,4,0,0,0-1.81-2.76,17.94,17.94,0,0,0-4.28-1.5c-2.38-.71-4.1-1.89-3.8-5.2l3.6,1.35c-2.18-3.09-6.85-4.79-4.21-9.3.35-.59,1.7-.61,3.37-1.15l-1.56,3.36c5.17,2.82,14,3.74,21.42.8l-.49-4.14c5.24,3.6,5.29,3.91,2,8.27-.29.4-.72,1-.64,1.34.91,3.88-1.72,4.72-4.54,5.43a33.81,33.81,0,0,0-3.49.94,3.24,3.24,0,0,0-1,5.34c2.55,2.38,12.58,3.58,15.63,1.8,4.55-2.66,9.25-9.68,6.14-17a59.82,59.82,0,0,1-3.77-10.16c-1.25-5.69-.42-7.39,3.59-9.69a80,80,0,0,0,10.72-7.6c3.13-2.58,5.59-5.72,3.75-10.41,3.17-.66,3.72,1.55,4.13,3.49.82,4-.65,7.45-3.13,10.37a47.56,47.56,0,0,1-6.48,6c-4.59,3.7-5,5.44-1.7,11.08,3.77-4.66,7.92-8.93,11-13.89,1.71-2.77,1.49-6.7,2.3-10.06a29.08,29.08,0,0,1,1.74-4.75c1.12-2.54,2.34-5,3.84-8.22-6.78.59-12.6.89-17.53-2.94C181.2,105.29,181,104.09,180.66,103.44Zm-18.15,72c-8.27-3.93-16.52-6.79-25.22-1.08,3.24,7.64,6,9.79,12.51,9.65C156.84,183.86,160.19,181.65,162.51,175.43Z"/><path class="cls-1" d="M198.74,170c3.26,3.7,6.12,7.15,6.31,12.3.24,6.7-2.4,12.28-6.29,17.19-2.68,3.38-6.26,6.13-9.72,8.79-5.82,4.48-6.27,5.91-3.87,12.65,1.17,3.29,2.14,6.8-1.12,9.8-.54.49-.48,1.8-.45,2.72a10.82,10.82,0,0,1-2.9,8.12,9.32,9.32,0,0,0-1.6,4c-.53,2.21-.58,4.63-3.86,5.8l-.86-4.19c-5.63-.37-10.41,3.35-16.45,5.08l-1.87,3.79-3-4.17L140.19,251l1.6,6a14.87,14.87,0,0,1-8.68-8.73c-1.2-3.09-3.24-5.84-4.58-8.89-1.8-4.07-.43-8.06,1.19-11.79,1.35-3.1,3.38-5.9,4.94-8.92a11.52,11.52,0,0,0,1.4-4.29c.71-9.52,6.16-15.31,14.34-19.29,11.56-5.61,22-12.76,30-23a29.92,29.92,0,0,0,6.31-17,4.1,4.1,0,0,1,1.53-2.81c10.41-6.8,15.51-16.68,16.9-28.76.24-2,.34-4,.5-6,3.23,3.11,4.34,8.09,3.39,14.4-1.37,9.1-6.45,16.11-12.61,22.45a7.32,7.32,0,0,0-2.47,5.93c.2,10.13-4.32,18.32-11.28,25.43-5.61,5.74-12.9,8.05-20.17,10.43a8.52,8.52,0,0,0-5.81,5.26c-.94,2.49.12,4.82,2.64,4.61a28.7,28.7,0,0,0,9.17-2.15c2.79-1.23,4.13-3.83,2.13-7.94,2.08.4,3.87.21,4.67,1a6.63,6.63,0,0,1,1.63,7.27c-2,5.54-8.73,10.57-14.72,10.56-3.6,0-7.19-.49-11.09-.78-1.54,6-6.87,8.72-11.77,11.76-6.24,3.88-8.17,7.52-7.22,12.74,2-.25,4.05-1.06,5.74-.59,2.66.74,2.78,3.32,2.52,5.73a10.23,10.23,0,0,0-.31,2.28,14.6,14.6,0,0,0,.9,2.71c1-.67,2.46-1.15,2.78-2.05,1.83-5.24.32-8.76-5.83-12.92l12.72-1.41c-5.11,5.21-4.13,10.55-2.67,15.84.18.65,2,.86,3.45,1.43a54.86,54.86,0,0,1-.63-7.23,6.18,6.18,0,0,1,1.58-4c1.13-1,3.41-1.94,4.42-1.41,1.26.65,2.3,2.78,2.42,4.35.16,2.34-.58,4.73-1,7.28,3.46.24,4.84-1.82,5.46-4.51,1.29-5.55-.66-8.78-6.75-11.6.86-1.73,9.49-3.22,12-2.32-.93,2-2.42,3.91-2.65,6-.25,2.28,0,5.19,1.28,6.87,1.13,1.47,4,1.62,6.08,2.35l.76-1.07c-1.29-2.67-2.58-5.35-4-8.24l2.84-3.55,6.42,4c.77-2.8,0-5.68-2-8.3-1.05-1.44-1.43-2.66.62-4l3.63,4.14c2.35-2.46,1.33-4.63.14-6.88-1.45-2.76-3.37-5.44-4.07-8.39-1-4.33,1.52-8.2,6-10.52,5.63-2.9,10.54-6.51,14-12.05,3.77-6,5.07-11.82.85-18.06a5.06,5.06,0,0,1-.6-1.48C198.36,170.74,198.54,170.51,198.74,170Z"/><path class="cls-1" d="M207.67,182.57c-1.4-5.18-2.36-9.95-4-14.45-.91-2.42-.45-3.85,1.19-5.35a75.36,75.36,0,0,0,15.28-20.42c2.45-4.57,2.46-9.53,2.14-14.47A114,114,0,0,0,215.7,97.4c-1.79-5.09-1.17-8.67,2.69-11.68-1.95,8.19,2.34,14.12,6.08,20.32,4,6.65,8.33,13.23,11.39,20.33a23.57,23.57,0,0,1-11.29,31c-4.63,2.26-8.41,5.76-9.82,11.31a63.2,63.2,0,0,1-4.07,10.69C210,180.77,208.46,181.77,207.67,182.57Z"/><path class="cls-1" d="M199.84,60.76c-4.53,1.47-9.13,2.72-13.56,4.44-5.83,2.27-6,2.28-10.54-2a16.23,16.23,0,0,0-5-2.92c-5.31-2.19-11.73-7.47-9.64-14.71a25.13,25.13,0,0,1,4.78-9.07c3.19-3.78,7.28-3.42,12.29.11a60.39,60.39,0,0,1,14.42,14.16c2.13,2.94,5.67,4.86,8.54,7.27,1,.79,1.82,1.67,2.73,2.51L200.28,62Zm-9.69-6.47c-3-5.84-10.69-11.23-15-13.91a6.1,6.1,0,0,0-5.4,0c-2,1.28-1.82,3.9-.67,5.93a20.69,20.69,0,0,0,10.25,9.25C183.22,57.21,186.57,56.07,190.15,54.29Z"/><path class="cls-1" d="M174.45,27.31l-2.1-4.67c3.28.87,5.54,1.74,5.59,4.93,0,2.53-2.17,4.34-5.16,5-5.4,1.23-11.1,2-16,4.28C148,41,142.71,48.7,138.38,57.19a55.82,55.82,0,0,1-7.32,10.34c-.86,1-3,.91-4.54,1.31a18.12,18.12,0,0,1-.44-4.42c.32-2.26,1.24-4.43,1.61-6.68,1.26-7.73,6-13.05,12.06-17.33a73.91,73.91,0,0,1,27.41-12.18C169.43,27.75,171.79,27.64,174.45,27.31Z"/><path class="cls-1" d="M162.84,37.19c-4.11,4.81-8.09,9.05-7.66,15.2.25,3.52,1.26,7.2,5.21,9.1,3.23,1.56,6.22,3.65,9.31,5.5l0,1a10.34,10.34,0,0,1-2.71.4c-5-.54-9.94-1.55-14.92-1.66-2.83-.06-5.69,1.31-8.53,2.06a22.59,22.59,0,0,1-2.81.85c-3.15.39-4.06-.62-3.34-3.74a32.46,32.46,0,0,1,8.78-16.22c4.51-4.38,9.66-8.1,14.58-12C161.28,37.27,162.15,37.34,162.84,37.19Z"/><path class="cls-1" d="M124.73,104.39l6.55-1.73c.42-5.2.71-10.36,1.32-15.48a8.66,8.66,0,0,1,2-4.05c.63-.79,1.89-1.07,2.86-1.58l.62.88c-.38.87-.69,1.77-1.13,2.6-2.6,5-1.8,9.87.06,14.92a138.61,138.61,0,0,1,4.12,14c.2.79-.95,1.92-1.47,2.9-.86-.67-2.14-1.16-2.5-2-2.1-5-5.63-8.2-11-9.2C125.86,105.61,125.65,105.24,124.73,104.39Z"/><path class="cls-1" d="M174.53,102l5.78,1c-1.33,1.13-1.92,2-2.72,2.26-5.85,2-10.06,5.62-12.51,12.51-.94-1.18-2.06-1.93-2.09-2.73a16,16,0,0,1,3-10.09c4.6-6.65,7.56-13.9,3.37-22.09-.31-.59,0-1.48,0-2.22l1-.22c1.39,3.4,3.31,6.7,4,10.24S174.53,98,174.53,102Z"/><path class="cls-1" d="M106.35,82.08a88.53,88.53,0,0,1-8.59-2.65c-2.22-1-3.91-2.86-3-5.48.49-1.38,1.86-3,3.14-3.38s3,.84,4.46,1.35l-.18,1.17-3.17.4c0,2.5,1.49,3.19,3.69,3.52a42.62,42.62,0,0,1,6.44,1.67c3.25,1,4.08,3.62,3.57,6.51a6.74,6.74,0,0,1-6,5.7c-3,.45-5.44-.3-7-3A4.78,4.78,0,0,1,99,85.7a13.57,13.57,0,0,1,.51-2.78c.8.34,1.6.7,2.41,1,1.21.46,2.43.88,3.64,1.32Z"/><path class="cls-1" d="M205.17,73.56l-2.92-3.93c2.45-.91,4.46-.4,5.83,1.3,1.5,1.86.62,5.38-1.57,6.64-1.78,1-3.81,1.61-5.69,2.48-1.09.5-2.12,1.16-3.17,1.75l.27,1.16h7.29c-1.58,3.49-3.78,5-6.78,4.67-2.79-.27-5.72-.69-7.15-3.69-2-4.14.43-7.69,5.51-8.47C199.37,75.07,201.9,74.32,205.17,73.56Z"/><path class="cls-1" d="M118,113.29c10.81-.63,17-2,19.52,12.95l-3.86-1.31c-1.22-.42-2.46-1.26-3.67-1.21C122.84,124,120.46,119,118,113.29Zm5.68,2-.69.56c1.13,3.81,4.7,5.72,11.78,5.7l-5.67-5.75-.65.61,1.67,2-2.31,1.5Z"/><path class="cls-1" d="M164.25,126.94c1.17-3.38,1.9-6.37,3.23-9.07,1.83-3.71,5.71-3.5,9.13-4a19.1,19.1,0,0,1,2.92.08c4.83.1,5,.28,2.58,4.72-2,3.73-5,6.2-9.59,6.38C170,125.19,167.53,126.18,164.25,126.94Zm10.57-5.81-2.92-1.66,1.64-2.08c-2.27,1.29-5.43,1.82-5,6.13l6.22-2.47,5.23-3.42-.84-1.1C175.85,116.08,176.1,119.43,174.82,121.13Z"/><path class="cls-2" d="M343,108v72.72q0,17.23-16.72,17.24-16.89,0-16.89-16.89V92.8q0-16.89,16.2-16.89h34.12q21.19,0,31.71,10.25T401.9,115q0,16.89-9.13,27.91T368.3,154h-5.86q-14.82,0-14.82-14.3,0-6.37,3.45-9.56t9.3-3.19h2.76q9.14,0,9.13-9.14,0-9.81-11.2-9.82Z"/><path class="cls-2" d="M472,187.06l-4.83-13.27H431.37L426,187.06q-4.83,10.86-14.65,10.86a19.38,19.38,0,0,1-12.58-4.49,14,14,0,0,1-5.51-11.37,14.72,14.72,0,0,1,1.2-6.72l41-89.95a18.24,18.24,0,0,1,5.69-7.5q3.45-2.49,9.82-2.5,6.21,0,9.65,2.59a17.58,17.58,0,0,1,5.52,7.58l37.39,89.78a15.35,15.35,0,0,1,1.21,6.72,14.1,14.1,0,0,1-5.52,11.29,19,19,0,0,1-12.4,4.57Q476,197.92,472,187.06Zm-21.37-61.52-8.79,21.88h16.2Z"/><path class="cls-2" d="M577.32,130.54V91.25q0-7.41,4.57-11.63a16.43,16.43,0,0,1,11.63-4.23,16,16,0,0,1,11.29,4.23q4.56,4.22,4.57,11.63V181.2q0,7.59-4.74,12.15a15.54,15.54,0,0,1-11.12,4.57q-9.3,0-15-8.62l-31.36-46.7v39.46q0,7.41-4.57,11.63A16.43,16.43,0,0,1,531,197.92a15.67,15.67,0,0,1-11.2-4.23q-4.49-4.22-4.48-11.63V91.94q0-7.41,4.65-12a15.23,15.23,0,0,1,11-4.57q9.64,0,15.16,8.45Z"/><path class="cls-2" d="M681.06,109.69V181.2q0,7.94-4.82,12.32a17.26,17.26,0,0,1-12.07,4.4,16.69,16.69,0,0,1-11.8-4.4q-4.74-4.4-4.74-12.32V109.69H635.91q-7.57,0-12.15-4.92a18,18,0,0,1,0-24q4.57-4.91,12.15-4.91h56.53a16.08,16.08,0,0,1,12.23,4.91,17.74,17.74,0,0,1,0,24,16.05,16.05,0,0,1-12.23,4.92Z"/><path class="cls-2" d="M792.9,197.23H736q-16.54,0-16.54-16.89V92.8q0-16.89,16.54-16.89H792.9q7.58,0,12.15,4.91a18,18,0,0,1,0,24q-4.57,4.92-12.15,4.92H752.75v11.54h33.43q7.07,0,11.2,4.48a16.3,16.3,0,0,1,0,21.71q-4.14,4.49-11.2,4.48H752.75v11.72H792.9q7.58,0,12.15,4.83a16.67,16.67,0,0,1,4.57,11.89,16.94,16.94,0,0,1-4.57,12Q800.48,197.23,792.9,197.23Z"/><path class="cls-2" d="M883.54,189.3l-20.33-37.91a15.61,15.61,0,0,1-2.42-9.13q0-15.85,12.93-15.86h2.41q9.48,0,9.48-10c0-3-.84-5.14-2.5-6.47s-4.34-2-8-2H857v72q0,17.23-16.71,17.24-16.89,0-16.89-16.89V92.8q0-16.89,16.2-16.89h36.19q20,0,30.5,10.86a36.1,36.1,0,0,1,10.51,26A36.89,36.89,0,0,1,911,133.47a31.81,31.81,0,0,1-14.57,12.4l16,25.16q3.27,5.86,3.27,10.34a15,15,0,0,1-5.51,11.81,18.77,18.77,0,0,1-12.58,4.74Q888.19,197.92,883.54,189.3Z"/><path class="cls-2" d="M1003.3,187.06l-4.82-13.27H962.63l-5.34,13.27q-4.83,10.86-14.65,10.86a19.4,19.4,0,0,1-12.58-4.49,14,14,0,0,1-5.51-11.37,14.57,14.57,0,0,1,1.21-6.72l41-89.95a18.15,18.15,0,0,1,5.69-7.5q3.43-2.49,9.82-2.5,6.19,0,9.65,2.59a17.65,17.65,0,0,1,5.51,7.58l37.4,89.78a15.36,15.36,0,0,1,1.2,6.72,14.12,14.12,0,0,1-5.51,11.29,19,19,0,0,1-12.41,4.57Q1007.26,197.92,1003.3,187.06Zm-21.37-61.52-8.79,21.88h16.2Z"/></g></svg>