<svg xmlns="http://www.w3.org/2000/svg" viewBox="0 0 1012.01 197.96"><defs><style>.cls-1{fill:#ff9000;stroke:#000;stroke-miterlimit:10;stroke-width:3px;}</style></defs><g id="OBJECTS"><path class="cls-1" d="M55.86,59.53v78.75q0,7-4.25,10.87A15,15,0,0,1,41.12,153a15,15,0,0,1-10.57-3.88q-4.18-3.87-4.18-10.87V59.53q0-6.69,4.26-10.64a14.79,14.79,0,0,1,10.49-4,14.83,14.83,0,0,1,10.49,4Q55.86,52.85,55.86,59.53Z"/><path class="cls-1" d="M122.9,93.58V58.92q0-6.53,4-10.26a14.55,14.55,0,0,1,10.27-3.72,14.12,14.12,0,0,1,10,3.72q4,3.73,4,10.26v79.36A14.23,14.23,0,0,1,147,149a13.71,13.71,0,0,1-9.8,4q-8.22,0-13.23-7.6L96.3,104.23V139q0,6.54-4,10.26A14.51,14.51,0,0,1,82,153a13.81,13.81,0,0,1-9.88-3.73q-4-3.72-3.95-10.26V59.53A14.1,14.1,0,0,1,72.28,49a13.41,13.41,0,0,1,9.73-4q8.51,0,13.38,7.45Z"/><path class="cls-1" d="M214.42,75.19v63.09q0,7-4.25,10.87A15.24,15.24,0,0,1,199.53,153a14.76,14.76,0,0,1-10.42-3.88q-4.19-3.87-4.18-10.87V75.19H174.59a13.94,13.94,0,0,1-10.72-4.33,15,15,0,0,1-4-10.57,15,15,0,0,1,4-10.56,14,14,0,0,1,10.72-4.34h49.86a14.2,14.2,0,0,1,10.8,4.34,14.76,14.76,0,0,1,4.1,10.56,14.78,14.78,0,0,1-4.1,10.57,14.19,14.19,0,0,1-10.8,4.33Z"/><path class="cls-1" d="M277.66,59.53v78.75q0,7-4.25,10.87a16.23,16.23,0,0,1-21.06,0q-4.18-3.87-4.18-10.87V59.53q0-6.69,4.26-10.64a15.9,15.9,0,0,1,21,0Q277.65,52.85,277.66,59.53Z"/><path class="cls-1" d="M341.36,113q-5.92,0-10.79-6.23L319.62,92.52v45.76q0,6.84-4.26,10.79A14.62,14.62,0,0,1,305,153a15.21,15.21,0,0,1-10.64-3.88q-4.26-3.87-4.26-10.87V60.59q0-7.14,4.56-11.4a15.5,15.5,0,0,1,10.94-4.25,17.87,17.87,0,0,1,14.75,7.45l21,26.9,21.13-26.9q5.77-7.45,14.59-7.45a15.79,15.79,0,0,1,11,4.25q4.63,4.26,4.63,11.4v77.69q0,7-4.25,10.87A15.25,15.25,0,0,1,377.84,153a14.76,14.76,0,0,1-10.41-3.88q-4.19-3.87-4.18-10.87V92.52l-10.79,14.29Q347.9,113.05,341.36,113Z"/><path class="cls-1" d="M471.34,143.45l-4.26-11.71H435.46l-4.71,11.71Q426.49,153,417.83,153a17.08,17.08,0,0,1-11.1-4,12.35,12.35,0,0,1-4.86-10,12.89,12.89,0,0,1,1.06-5.93l36.18-79.36a16.06,16.06,0,0,1,5-6.61q3-2.2,8.66-2.2,5.47,0,8.52,2.28a15.52,15.52,0,0,1,4.86,6.69l33,79.2a13.5,13.5,0,0,1,1.06,5.93,12.46,12.46,0,0,1-4.86,10,16.74,16.74,0,0,1-10.95,4Q474.84,153,471.34,143.45ZM452.49,89.18l-7.75,19.3H459Z"/><path class="cls-1" d="M545.22,75.19v63.09q0,7-4.25,10.87A15.24,15.24,0,0,1,530.33,153a14.76,14.76,0,0,1-10.42-3.88q-4.18-3.87-4.18-10.87V75.19H505.39a13.94,13.94,0,0,1-10.72-4.33,15,15,0,0,1-4-10.57,15,15,0,0,1,4-10.56,14,14,0,0,1,10.72-4.34h49.87a14.18,14.18,0,0,1,10.79,4.34,14.76,14.76,0,0,1,4.11,10.56,14.79,14.79,0,0,1-4.11,10.57,14.17,14.17,0,0,1-10.79,4.33Z"/><path class="cls-1" d="M643.89,152.42H593.72q-14.6,0-14.59-14.9V60.29q0-14.9,14.59-14.9h50.17a14,14,0,0,1,10.72,4.34,15,15,0,0,1,4,10.56,15,15,0,0,1-4,10.57,13.94,13.94,0,0,1-10.72,4.33H608.46V85.38H638q6.22,0,9.88,4a14.38,14.38,0,0,1,0,19.15,12.78,12.78,0,0,1-9.88,4h-29.5v10.33h35.43A14.07,14.07,0,0,1,654.61,127a14.69,14.69,0,0,1,4,10.49,15,15,0,0,1-4,10.57A14,14,0,0,1,643.89,152.42Z"/><path class="cls-1" d="M767.94,75.49h-10.8q-11.7,0-18.16,6.92a23.32,23.32,0,0,0-6.46,16.49A24,24,0,0,0,739,115.78q6.45,7,18,7h11q7.14,0,10.94,4.41a16.26,16.26,0,0,1-.07,21q-3.88,4.26-10.87,4.26h-10.8A58,58,0,0,1,734,147.93,45.23,45.23,0,0,1,717.16,136a54.23,54.23,0,0,1-9.81-16.8,57.34,57.34,0,0,1,.16-39.45,57.3,57.3,0,0,1,10.18-17.33A46.42,46.42,0,0,1,735.18,50a61.16,61.16,0,0,1,24.24-4.64h8.52q7,0,11,4.49a16,16,0,0,1,0,21.2C776.27,74,772.6,75.49,767.94,75.49Z"/><path class="cls-1" d="M844.4,113q-5.92,0-10.79-6.23l-11-14.29v45.76q0,6.84-4.25,10.79a14.64,14.64,0,0,1-10.34,4,15.21,15.21,0,0,1-10.64-3.88q-4.26-3.87-4.26-10.87V60.59q0-7.14,4.56-11.4a15.51,15.51,0,0,1,10.95-4.25,17.86,17.86,0,0,1,14.74,7.45l21,26.9,21.14-26.9q5.76-7.45,14.59-7.45a15.76,15.76,0,0,1,11,4.25q4.64,4.26,4.64,11.4v77.69q0,7-4.26,10.87A15.22,15.22,0,0,1,880.89,153a14.72,14.72,0,0,1-10.41-3.88q-4.18-3.87-4.18-10.87V92.52l-10.8,14.29Q850.94,113.05,844.4,113Z"/><path class="cls-1" d="M985.64,118.36q0,34.06-33.3,34.06H923q-6.84,0-10.72-4.41a15.38,15.38,0,0,1-3.87-10.49,15,15,0,0,1,4-10.34q3.95-4.41,10.95-4.41H954a5.63,5.63,0,0,0,4.41-1.67,5.45,5.45,0,0,0,1.52-3.8,5.83,5.83,0,0,0-1.52-4.1,5.63,5.63,0,0,0-4.41-1.68h-15.2q-15.81,0-23.64-7.67t-7.83-24.1q0-34.35,33.6-34.36h23.72q7.29,0,11.4,4.41a14.72,14.72,0,0,1,4.1,10.34A15,15,0,0,1,976,70.7q-4.18,4.48-11.48,4.49H939a5.53,5.53,0,0,0-4.33,1.6,5.76,5.76,0,0,0-1.44,4,5.7,5.7,0,0,0,1.44,3.81A5.43,5.43,0,0,0,939,86.29h15.2q16.13,0,23.8,7.75T985.64,118.36Z"/></g></svg>