<svg xmlns="http://www.w3.org/2000/svg" viewBox="0 0 1054.9 279.66"><defs><style>.cls-1{fill:#ff9000;stroke:#000;stroke-miterlimit:10;stroke-width:3px;}</style></defs><g id="OBJECTS"><path class="cls-1" d="M80.29,97.75v98.61q0,23.37-22.67,23.37-22.9,0-22.9-22.9V77.18q0-22.91,22-22.9H103q28.74,0,43,13.9t14.25,39.15q0,22.9-12.38,37.85t-33.19,15H106.7q-20.1,0-20.1-19.4,0-8.64,4.68-13t12.61-4.32h3.74q12.39,0,12.39-12.38,0-13.32-15.19-13.32Z"/><path class="cls-1" d="M255.33,205l-6.55-18h-48.6l-7.25,18q-6.54,14.72-19.86,14.72A26.25,26.25,0,0,1,156,213.65a19,19,0,0,1-7.48-15.42c0-4,.54-7.09,1.64-9.11l55.61-122A24.66,24.66,0,0,1,213.5,57q4.67-3.39,13.32-3.39,8.4,0,13.08,3.5a23.87,23.87,0,0,1,7.48,10.29l50.71,121.75q1.64,3.27,1.64,9.11,0,9.12-7.48,15.31a25.71,25.71,0,0,1-16.83,6.19Q260.71,219.73,255.33,205Zm-29-83.43-11.92,29.68h22Z"/><path class="cls-1" d="M398.11,128.36V75.08q0-10,6.19-15.78t15.77-5.72a21.73,21.73,0,0,1,15.31,5.72q6.19,5.73,6.19,15.78v122q0,10.29-6.42,16.48a21,21,0,0,1-15.08,6.19q-12.61,0-20.33-11.68l-42.53-63.33v53.51q0,10.05-6.19,15.78t-15.77,5.72A21.29,21.29,0,0,1,320.06,214Q314,208.28,314,198.23V76q0-10,6.31-16.24a20.67,20.67,0,0,1,15-6.19q13.08,0,20.56,11.45Z"/><path class="cls-1" d="M538.79,100.08v97q0,10.75-6.55,16.71t-16.35,6a22.65,22.65,0,0,1-16-6q-6.44-6-6.43-16.71v-97H477.56q-10.29,0-16.48-6.66a23,23,0,0,1-6.19-16.24,23,23,0,0,1,6.19-16.24q6.19-6.66,16.48-6.66h76.65q10.27,0,16.59,6.66a22.72,22.72,0,0,1,6.31,16.24,22.72,22.72,0,0,1-6.31,16.24q-6.31,6.66-16.59,6.66Z"/><path class="cls-1" d="M690.45,218.8H613.33q-22.43,0-22.43-22.91V77.18q0-22.91,22.43-22.9h77.12q10.27,0,16.48,6.66a23,23,0,0,1,6.19,16.24,23,23,0,0,1-6.19,16.24q-6.2,6.66-16.48,6.66H636v15.66h45.34q9.57,0,15.19,6.08a22.15,22.15,0,0,1,0,29.44q-5.61,6.08-15.19,6.08H636v15.89h54.45q10.27,0,16.48,6.54a22.6,22.6,0,0,1,6.19,16.12,23,23,0,0,1-6.19,16.25Q700.73,218.8,690.45,218.8Z"/><path class="cls-1" d="M813.37,208.05l-27.58-51.42q-3.27-4.66-3.27-12.38,0-21.5,17.53-21.5h3.27q12.84,0,12.85-13.55,0-6.08-3.39-8.77t-10.86-2.68H777.38v97.68q0,23.37-22.67,23.37-22.9,0-22.9-22.91V77.18q0-22.91,22-22.9h49.07q27.1,0,41.36,14.72a49,49,0,0,1,14.26,35.29q0,16.13-7.83,28t-19.75,16.83l21.74,34.12q4.43,7.93,4.44,14a20.25,20.25,0,0,1-7.48,16,25.42,25.42,0,0,1-17.06,6.43Q819.68,219.73,813.37,208.05Z"/><path class="cls-1" d="M975.78,205l-6.55-18h-48.6l-7.25,18q-6.54,14.72-19.86,14.72a26.25,26.25,0,0,1-17.06-6.08A19,19,0,0,1,869,198.23q0-6.07,1.64-9.11l55.62-122A24.56,24.56,0,0,1,934,57q4.66-3.39,13.32-3.39,8.41,0,13.08,3.5a23.87,23.87,0,0,1,7.48,10.29l50.71,121.75q1.63,3.27,1.64,9.11,0,9.12-7.48,15.31a25.71,25.71,0,0,1-16.83,6.19Q981.16,219.73,975.78,205Zm-29-83.43-11.92,29.68h22Z"/></g></svg>