<svg id="Слой_1" data-name="Слой 1" xmlns="http://www.w3.org/2000/svg" xmlns:xlink="http://www.w3.org/1999/xlink" viewBox="0 0 595.28 595.11"><defs><style>.cls-1{fill:url(#Безымянный_градиент_14);}.cls-2{fill:url(#Безымянный_градиент_2);}.cls-3{fill:#fff;}</style><radialGradient id="Безымянный_градиент_14" cx="397.19" cy="289.75" r="44.9" gradientTransform="matrix(16.53, 0, 0, -16.52, -6342.93, 5382.76)" gradientUnits="userSpaceOnUse"><stop offset="0" stop-color="#ffdd56"/><stop offset="0.33" stop-color="#ea5645"/><stop offset="0.35" stop-color="#ea544b"/><stop offset="0.5" stop-color="#e64972"/><stop offset="0.64" stop-color="#d44190"/><stop offset="0.76" stop-color="#b94693"/><stop offset="0.84" stop-color="#b04693"/></radialGradient><radialGradient id="Безымянный_градиент_2" cx="389.59" cy="132.51" r="29.81" gradientTransform="matrix(16.53, 0, 0, -11.01, -6342.93, 1451.33)" gradientUnits="userSpaceOnUse"><stop offset="0" stop-color="#4665ae"/><stop offset="1" stop-color="#4665ae" stop-opacity="0"/></radialGradient></defs><path class="cls-1" d="M463.19,594.79l-330.53.32C59.94,595.17.4,535.76.31,463.06L0,132.62C-.07,59.93,59.36.4,132.08.31L462.62,0C535.33-.07,594.88,59.35,595,132l.32,330.44C595.36,535.2,535.91,594.73,463.19,594.79Z"/><path class="cls-2" d="M463.19,594.79l-330.53.32C59.94,595.17.4,535.76.31,463.06L0,132.62C-.07,59.93,59.36.4,132.08.31L462.62,0C535.33-.07,594.88,59.35,595,132l.32,330.44C595.36,535.2,535.91,594.73,463.19,594.79Z"/><path class="cls-3" d="M297.65,413.22A115.66,115.66,0,1,1,413.33,297.56,115.81,115.81,0,0,1,297.65,413.22Zm0-198.27a82.61,82.61,0,1,0,82.63,82.61A82.72,82.72,0,0,0,297.65,215Z"/><ellipse class="cls-3" cx="421.6" cy="173.65" rx="24.79" ry="24.78"/><path class="cls-3" d="M396.81,512.35H198.49A115.81,115.81,0,0,1,82.8,396.69V198.43A115.8,115.8,0,0,1,198.49,82.78H396.81A115.8,115.8,0,0,1,512.49,198.43V396.69A115.81,115.81,0,0,1,396.81,512.35ZM198.49,115.82a82.72,82.72,0,0,0-82.64,82.61V396.69a82.72,82.72,0,0,0,82.64,82.61H396.81a82.72,82.72,0,0,0,82.63-82.61V198.43a82.72,82.72,0,0,0-82.63-82.61Z"/></svg>