<svg id="Слой_1" data-name="Слой 1" xmlns="http://www.w3.org/2000/svg" xmlns:xlink="http://www.w3.org/1999/xlink" viewBox="0 0 595.28 595.11">
    <defs>
        <linearGradient id="Безымянный_градиент_12" x1="89.29" y1="299.66" x2="475.27" y2="299.66" gradientUnits="userSpaceOnUse">
            <stop offset="0" stop-color="#664796"/>
            <stop offset="0.04" stop-color="#8d5099"/>
            <stop offset="0.09" stop-color="#af579c"/>
            <stop offset="0.13" stop-color="#ca5d9e"/>
            <stop offset="0.18" stop-color="#dd62a0"/>
            <stop offset="0.23" stop-color="#e864a1"/>
            <stop offset="0.28" stop-color="#ec65a1"/>
            <stop offset="0.53" stop-color="#ec5f6f"/>
            <stop offset="0.81" stop-color="#eb5d47"/>
            <stop offset="1" stop-color="#f5a464"/>
        </linearGradient>
    </defs>
    <path fill="url(#Безымянный_градиент_12)" d="M279.63,347.26c26.79,0,52.46-5.05,75.7-18.87,40.23-23.93,57.32-60.65,57.55-106.25.09-18-2.87-35.44-11.21-51.6-14.39-27.86-38.55-41.4-68.69-45.28-50.31-6.48-92.32,10.89-128.08,45.52C183,192,165.28,216.69,147.64,241.4c-6.86,9.61-14,19-23.23,26.56-3.91,3.21-8.06,6.08-13,7.47-6.63,1.87-12.79.8-17.84-4s-5-10.54-3.19-16.67c4.94-16.68,13.62-31.51,23.14-45.84C149.29,155.09,197,114.53,253.8,84.2c25.88-13.83,53-24.32,82.13-29.09,30-4.92,59.19-3.06,85.89,13,30.92,18.61,46.26,47.52,51.35,82.14,7.52,51.14-5.71,98.16-31.19,142.05-28.54,49.17-67.86,87-120.73,109.54-28.63,12.22-58.56,17.26-89.65,13.61-5.24-.62-7.26.74-8.64,5.91C215,451,206.73,480.63,192.83,508.23c-5.84,11.6-12.6,22.66-23,31-5.57,4.46-11.77,7.34-19.08,7.42-7.78.1-11-2.79-11.14-10.71-.18-11.69,2.43-23,5.05-34.31,13.16-56.71,32.39-111.53,52.38-166.1,14.09-38.45,28.7-76.71,46.63-113.6,7-14.44,14.39-28.71,24.7-41.18,5.22-6.32,11.08-11.91,19.4-14,6.5-1.65,13-1.69,18,3.33,5.21,5.22,5.38,12,2.93,18.44-6.37,16.81-13.14,33.46-19.72,50.19-13.15,33.45-26.17,67-39.54,100.33-2,5.08-.64,6.17,4.12,6.69A214.55,214.55,0,0,0,279.63,347.26Z"/>
</svg>
