<svg id="Слой_1" data-name="Слой 1" xmlns="http://www.w3.org/2000/svg" xmlns:xlink="http://www.w3.org/1999/xlink" viewBox="0 0 595.28 595.11"><defs><style>.cls-1{fill:url(#Безымянный_градиент_13);}.cls-2{fill:#fff;fill-rule:evenodd;}</style><linearGradient id="Безымянный_градиент_13" x1="-836.86" y1="58.15" x2="-836.86" y2="58.74" gradientTransform="translate(837162 -58152.6) scale(1000)" gradientUnits="userSpaceOnUse"><stop offset="0" stop-color="#3ea8e0"/><stop offset="1" stop-color="#239ed9"/></linearGradient></defs><ellipse class="cls-1" cx="297.64" cy="297.55" rx="297.64" ry="297.55"/><path class="cls-2" d="M134.57,294.33q130.11-56.49,173.48-74.82c82.52-34.44,99.87-40.38,111-40.63,2.48,0,7.93.49,11.65,3.47,3,2.47,3.72,5.7,4.21,8.17a42.87,42.87,0,0,1,.5,11.65C431,249.24,411.64,363.46,401.72,416c-4.21,22.3-12.39,29.73-20.32,30.47-17.34,1.49-30.48-11.39-47.08-22.29-26.27-17.1-40.9-27.75-66.42-44.6-29.49-19.32-10.41-30,6.44-47.32,4.46-4.46,80.55-73.83,82-80,.25-.74.25-3.71-1.48-5.2s-4.22-1-6.2-.49c-2.73.49-44.36,28.24-125.4,83-11.9,8.18-22.55,12.14-32.22,11.9-10.65-.25-31-6-46.34-10.91-18.59-5.94-33.46-9.16-32.22-19.57C113.26,305.48,120.69,300,134.57,294.33Z"/></svg>